<?xml version="1.0" standalone="no"?>
<!DOCTYPE svg PUBLIC "-//W3C//DTD SVG 20010904//EN"
 "http://www.w3.org/TR/2001/REC-SVG-20010904/DTD/svg10.dtd">
<svg version="1.0" xmlns="http://www.w3.org/2000/svg"
 width="563.000000pt" height="563.000000pt" viewBox="0 0 563.000000 563.000000"
 preserveAspectRatio="xMidYMid meet">
<metadata>
Created by potrace 1.14, written by Peter Selinger 2001-2017
</metadata>
<g transform="translate(0.000000,563.000000) scale(0.100000,-0.100000)"
fill="#000000" stroke="none">
<path d="M0 5553 c0 -73 2 -79 32 -110 l32 -33 -32 0 -32 0 0 -1415 0 -1415
28 12 c15 7 36 18 47 25 11 7 25 13 31 13 20 0 -9 -89 -60 -187 l-47 -88 3
-173 3 -174 53 65 c28 36 61 85 72 110 17 38 30 50 83 77 34 18 74 41 89 51
14 11 28 19 31 19 8 0 -47 -158 -73 -210 -12 -25 -40 -69 -62 -99 l-40 -53
-77 3 -76 4 -3 -987 -2 -988 140 0 140 0 7 27 c12 43 6 179 -11 268 -21 107
-66 246 -81 252 -7 2 -11 14 -8 26 3 16 2 18 -5 9 -7 -11 -10 -11 -15 2 -4 9
-1 16 6 16 9 0 8 3 -1 9 -7 4 -14 16 -16 25 -1 10 -7 21 -12 24 -14 11 -13 51
2 112 8 30 14 77 14 105 0 39 9 70 40 133 22 46 56 136 76 200 20 64 47 147
59 183 13 37 22 69 20 71 -3 3 15 54 40 114 24 60 44 103 45 96 0 -7 -13 -46
-30 -85 -16 -40 -32 -85 -36 -101 -13 -53 28 -13 81 79 70 122 141 231 156
240 9 6 11 4 6 -7 -4 -12 6 -19 41 -29 26 -8 50 -14 55 -15 20 -4 20 -7 -3
-14 -24 -8 -24 -8 -2 -9 30 -1 45 36 26 65 -8 11 -11 24 -7 28 5 4 1 7 -7 6
-39 -6 -70 1 -70 15 0 20 46 30 78 16 24 -10 25 -10 9 2 -22 18 -22 28 1 20
13 -5 11 1 -8 21 -16 18 -19 25 -8 21 12 -5 31 14 74 74 32 44 60 78 62 76 3
-2 -1 -72 -8 -154 -14 -161 -9 -307 11 -356 l12 -30 7 46 c5 25 22 74 40 108
38 77 140 231 152 231 4 0 8 -17 8 -39 0 -55 45 -269 81 -386 33 -105 73 -194
108 -235 18 -21 22 -23 31 -10 22 31 5 102 -44 180 -45 72 -76 151 -76 194 0
32 16 6 30 -49 14 -54 44 -121 66 -145 7 -9 24 -41 38 -71 l24 -55 -20 -59
c-17 -51 -18 -60 -4 -73 13 -13 16 -10 26 29 6 24 12 48 14 53 1 5 29 -38 63
-95 33 -57 93 -148 133 -202 40 -54 71 -100 69 -101 -2 -2 -56 -30 -119 -61
-308 -154 -625 -381 -719 -514 -35 -51 -141 -257 -141 -276 0 -3 1123 -5 2496
-5 l2495 0 -3 264 c-2 145 -7 268 -11 272 -4 5 -12 2 -17 -6 -8 -13 -10 -12
-10 3 0 10 -7 17 -17 16 -11 0 -13 -3 -5 -6 18 -7 15 -20 -8 -26 -17 -4 -18
-1 -14 27 3 25 3 27 -5 11 -8 -17 -10 -18 -10 -2 -1 20 -17 23 -25 5 -3 -9 -9
-8 -20 6 -14 17 -16 17 -22 3 -9 -25 -33 -20 -44 8 -5 14 -14 25 -20 25 -14 0
-12 -27 3 -33 7 -3 5 -6 -5 -6 -10 -1 -18 6 -18 14 0 8 -4 15 -10 15 -5 0 -10
5 -10 10 0 6 7 10 15 10 8 0 15 5 15 11 0 7 -9 9 -21 6 -18 -5 -20 -2 -17 18
5 22 1 25 -39 31 -24 3 -46 11 -50 17 -4 6 0 8 10 4 9 -3 19 -2 22 3 4 6 -13
10 -39 10 -26 0 -46 -5 -48 -12 -3 -7 -5 2 -5 19 0 26 3 31 14 21 7 -6 16 -8
20 -4 3 3 1 6 -6 6 -7 0 -9 5 -5 12 4 6 3 8 -4 4 -6 -3 -14 -1 -17 4 -5 7 -12
5 -21 -7 -13 -17 -14 -17 -8 2 5 17 3 17 -14 -4 -10 -13 -24 -21 -31 -17 -6 4
-9 2 -6 -6 3 -7 -7 -18 -21 -25 -26 -12 -26 -12 -9 7 23 25 11 39 -13 17 -10
-10 -26 -17 -35 -17 -9 0 -17 -4 -17 -10 0 -5 -5 -10 -11 -10 -6 0 -8 9 -4 20
4 11 2 20 -4 20 -6 0 -11 -6 -11 -13 0 -17 -37 -39 -45 -26 -5 7 -11 7 -19 0
-7 -6 -15 -8 -19 -5 -3 3 -8 -4 -12 -15 -4 -12 -12 -18 -21 -14 -8 3 -14 -1
-14 -10 0 -10 -8 -13 -25 -9 -19 3 -25 0 -25 -12 0 -10 -5 -14 -10 -11 -6 4
-8 10 -5 15 11 17 -41 -4 -70 -29 -18 -16 -23 -18 -12 -5 9 11 17 27 17 35 -1
10 -4 9 -14 -4 -10 -13 -21 -16 -39 -12 -16 4 -35 1 -51 -10 -31 -21 -65 -13
-46 10 9 10 9 15 1 15 -18 0 -19 0 -48 15 -21 11 -30 12 -42 2 -12 -10 -13 -8
-8 15 4 16 3 30 -5 34 -7 4 -8 3 -4 -4 4 -7 2 -20 -3 -29 -6 -11 -11 -13 -11
-5 0 7 -4 11 -9 7 -5 -3 -13 0 -17 6 -4 8 -3 9 5 5 6 -4 14 0 17 9 8 21 -3 32
-18 17 -17 -17 -31 -15 -24 3 6 18 1 19 -25 4 -11 -5 -16 -15 -13 -21 4 -6 3
-8 -3 -5 -5 3 -25 -7 -44 -23 -19 -16 -38 -29 -42 -30 -5 0 17 21 50 47 32 26
60 50 63 53 7 9 217 164 333 246 185 132 469 294 785 449 l102 49 0 170 0 169
-197 -6 c-217 -7 -514 -41 -653 -74 -22 -6 -23 -4 -12 10 8 9 30 21 50 28 20
6 42 15 47 19 6 4 44 22 86 40 44 18 91 46 110 66 l33 34 60 -58 61 -57 7 73
c14 140 57 252 117 306 17 15 21 15 65 -4 60 -25 155 -50 195 -50 l31 0 0
1745 0 1745 -672 0 -671 0 107 -80 c254 -189 451 -366 621 -560 90 -103 205
-249 205 -262 0 -22 -40 17 -144 140 -119 143 -346 373 -455 462 -35 29 -138
108 -229 176 l-165 124 -258 0 -257 0 9 -39 c5 -22 13 -95 18 -163 l10 -123
-26 -38 c-29 -42 -104 -109 -149 -132 -33 -17 -135 -19 -264 -6 -180 19 -212
20 -100 2 63 -10 139 -23 168 -30 29 -6 74 -11 100 -11 34 -1 42 -3 31 -10 -9
-5 -84 -10 -169 -11 -153 -2 -153 -2 -129 -21 24 -20 24 -20 -81 -13 -135 9
-128 9 -242 30 -54 9 -98 21 -98 26 0 5 9 9 20 9 52 0 0 40 -55 43 -25 1 -45
6 -45 11 0 4 -9 6 -20 3 -12 -3 -18 -1 -14 5 3 5 16 7 28 4 20 -5 20 -5 2 9
-11 8 -27 15 -36 15 -16 0 -48 30 -65 60 -5 8 8 1 28 -17 24 -21 51 -34 79
-37 204 -27 371 -46 375 -43 4 5 -22 9 -245 42 -94 14 -174 30 -188 39 -13 9
-33 33 -44 54 -15 25 -20 30 -16 13 l5 -23 -24 22 c-47 44 -50 68 -21 197 14
65 26 122 26 126 0 5 -10 7 -22 5 -18 -3 -24 -15 -38 -83 -39 -186 -54 -235
-72 -235 -25 0 -23 17 17 163 19 70 35 134 35 142 0 13 -74 15 -560 15 l-560
0 -74 -148 c-41 -81 -75 -142 -75 -137 -1 6 28 70 64 144 36 73 65 135 65 137
0 2 -306 4 -680 4 l-680 0 0 -77z m3747 10 c-3 -10 -5 -4 -5 12 0 17 2 24 5
18 2 -7 2 -21 0 -30z m10 -176 c-2 -23 -3 -1 -3 48 0 50 1 68 3 42 2 -26 2
-67 0 -90z m-1881 -83 c142 -96 394 -350 609 -613 l68 -84 -44 7 c-24 4 -62
10 -84 12 -22 3 -122 29 -222 59 -101 30 -234 64 -297 76 -78 16 -112 26 -109
35 2 7 -1 15 -7 19 -7 4 -2 14 14 28 34 30 57 86 44 110 -7 13 -6 28 2 47 7
16 9 38 5 51 -4 12 -3 19 1 16 5 -3 9 18 9 46 0 29 6 58 13 65 6 7 12 22 12
33 0 25 14 24 53 -2 l32 -21 -30 28 c-16 15 -52 47 -79 70 -54 49 -49 58 10
18z m-667 -33 c-6 -18 -13 -30 -15 -28 -2 2 1 18 7 36 6 18 13 30 15 28 2 -2
-1 -18 -7 -36z m-563 -20 c-3 -5 -16 -11 -28 -14 -22 -6 -22 -5 -4 8 22 17 40
20 32 6z m-61 -30 c-6 -5 -28 -19 -50 -31 -55 -30 -137 -94 -196 -153 -27 -27
-52 -48 -54 -46 -12 13 140 144 229 198 69 40 89 50 71 32z m-35 -68 c-47 -32
-51 -40 -28 -47 12 -3 19 -8 16 -11 -3 -4 -16 -1 -28 5 -18 10 -27 7 -58 -16
-43 -33 -104 -96 -98 -102 3 -2 15 5 27 17 13 12 29 21 36 21 7 0 13 8 13 17
0 12 3 14 11 6 8 -8 18 -7 37 3 15 8 35 14 44 14 9 0 22 8 27 18 8 12 10 13
11 3 0 -11 6 -8 20 7 12 12 24 22 28 23 52 5 77 12 86 25 6 8 20 17 31 19 11
2 20 4 20 5 0 8 72 5 78 -3 5 -9 9 -8 16 2 7 11 14 10 37 -6 16 -11 34 -18 41
-16 6 2 19 -7 28 -21 10 -14 21 -23 26 -20 6 3 7 -6 4 -23 l-7 -28 22 25 c12
14 18 18 14 10 -14 -28 -37 -50 -47 -43 -6 3 -7 1 -3 -6 4 -6 -11 -33 -37 -64
-24 -28 -63 -80 -86 -114 -36 -54 -59 -74 -171 -147 -71 -47 -184 -126 -250
-176 -66 -50 -136 -100 -155 -111 l-35 -21 -30 30 c-28 29 -30 35 -30 109 1
43 5 124 9 181 9 109 34 176 87 237 l26 30 -28 -50 c-49 -87 -61 -119 -68
-170 l-6 -50 18 50 c42 112 108 212 183 275 63 54 170 129 184 130 5 0 -2 -8
-15 -17z m2109 -42 c-6 -2 -21 6 -33 19 l-21 21 32 -18 c18 -10 28 -20 22 -22z
m556 -298 c137 -17 196 -31 140 -33 -27 -1 -28 -2 -10 -11 14 -6 -2 -7 -50 -4
-245 19 -345 25 -465 26 -87 1 -122 4 -100 9 19 4 29 8 23 9 -7 0 -13 5 -13
11 0 22 267 18 475 -7z m770 -313 c27 -7 27 -8 5 -8 -14 0 -36 4 -50 8 -20 6
-21 8 -5 8 11 0 34 -4 50 -8z m145 -31 c16 -6 10 -7 -20 -3 -25 4 -54 10 -65
15 -24 10 48 0 85 -12z m530 -159 c8 -5 11 -10 5 -10 -5 0 -17 5 -25 10 -8 5
-10 10 -5 10 6 0 17 -5 25 -10z m160 -32 c0 -5 -7 -3 -15 6 -8 8 -15 18 -15
22 0 3 7 1 15 -6 8 -7 15 -17 15 -22z m-26 -10 c24 -6 49 -20 55 -31 7 -10 11
-20 9 -21 -2 -1 -32 13 -68 31 -69 35 -68 40 4 21z m-1432 -753 c3 -14 1 -25
-3 -25 -5 0 -9 11 -9 25 0 14 2 25 4 25 2 0 6 -11 8 -25z m-2 -62 c-1 -16 -2
-37 -1 -48 1 -17 3 -17 11 -5 5 8 10 11 10 6 0 -11 -30 -46 -40 -46 -4 0 -3
21 1 48 4 26 8 53 8 60 1 6 4 12 7 12 3 0 5 -12 4 -27z m-434 -96 c27 -30 64
-70 82 -91 l33 -36 -137 -65 c-75 -36 -138 -65 -140 -65 -2 0 -3 6 -1 13 1 6
-5 11 -13 9 -10 -1 -9 3 5 14 16 13 17 15 3 12 -9 -2 -18 -1 -19 2 -5 11 16
57 50 114 20 34 45 80 55 104 11 23 22 42 26 42 4 0 29 -24 56 -53z m-498
-178 c-3 -8 -7 -3 -11 10 -4 17 -3 21 5 13 5 -5 8 -16 6 -23z m1119 -76 c17
-8 39 -23 49 -34 16 -17 16 -22 4 -29 -12 -8 -12 -10 4 -10 12 0 16 -5 12 -16
-3 -8 -2 -13 3 -10 4 3 16 -3 26 -14 10 -11 22 -17 28 -13 6 3 7 1 3 -5 -4 -7
2 -22 13 -34 12 -12 21 -25 21 -29 0 -4 -35 5 -77 19 -65 21 -98 25 -198 26
-66 1 -151 -2 -190 -6 -57 -6 -65 -5 -40 4 17 6 33 15 36 21 4 5 12 6 19 2 8
-5 11 -4 6 3 -3 6 5 13 22 17 17 3 35 18 46 36 9 16 32 36 49 44 18 9 24 13
15 11 -12 -4 -15 -1 -11 10 3 8 12 13 19 10 19 -7 45 4 37 16 -8 14 61 1 104
-19z m58 -189 c50 -14 101 -27 115 -29 49 -7 73 -17 59 -26 -8 -5 -17 -3 -21
4 -6 9 -8 9 -8 -1 0 -7 7 -20 15 -28 11 -12 15 -12 15 -2 0 7 8 1 17 -12 10
-14 17 -29 15 -34 -2 -5 8 -2 22 8 34 22 39 20 26 -6 -9 -19 -7 -18 12 5 23
26 46 38 33 17 -3 -6 0 -13 9 -16 16 -6 14 -9 -53 -86 -46 -52 -31 -48 30 9
35 33 50 42 47 29 -1 -10 3 -21 10 -23 8 -3 10 1 5 14 -4 10 6 3 21 -15 16
-18 26 -36 22 -39 -3 -4 -6 -2 -6 4 0 5 -6 10 -13 10 -7 0 -13 -8 -13 -18 0
-10 4 -15 8 -13 16 10 7 -24 -22 -84 -35 -72 -36 -79 -12 -61 9 7 6 1 -7 -13
-12 -15 -20 -31 -16 -38 3 -6 1 -9 -6 -8 -6 2 -14 -3 -17 -11 -3 -10 0 -11 9
-5 12 7 12 5 0 -9 -7 -9 -17 -14 -22 -11 -5 3 -6 -1 -4 -8 3 -8 -17 -42 -45
-76 -51 -64 -55 -81 -8 -37 15 14 32 25 37 25 6 0 14 7 19 16 7 12 11 13 16 5
4 -7 2 -18 -4 -26 -8 -9 -8 -15 -2 -15 6 0 12 3 14 8 2 4 16 18 32 32 29 25
29 25 17 2 -17 -32 -84 -96 -156 -150 -73 -53 -74 -55 -50 -46 11 4 39 21 63
37 24 16 49 30 55 31 7 1 18 5 26 10 9 6 8 -1 -5 -23 -20 -33 -29 -38 -38 -18
-3 6 -3 0 0 -14 5 -22 -2 -32 -38 -63 -35 -29 -40 -38 -28 -46 8 -5 12 -10 8
-10 -3 0 -15 -3 -25 -6 -15 -5 -15 -4 -3 5 8 6 11 11 5 11 -5 0 -23 -15 -40
-32 -16 -17 -51 -44 -77 -60 -69 -43 -59 -44 20 -4 79 42 184 116 248 176 36
34 48 40 57 30 7 -7 8 -10 2 -8 -5 3 -14 1 -20 -6 -16 -17 -17 -46 -3 -46 10
0 10 -2 0 -9 -11 -7 -11 -9 1 -14 12 -4 14 -13 8 -34 -5 -15 -13 -27 -20 -26
-20 5 -12 -7 12 -17 17 -7 18 -9 4 -9 -14 -1 -16 -5 -8 -18 5 -10 9 -30 9 -46
0 -22 -3 -25 -14 -16 -8 7 -17 9 -21 5 -3 -3 -1 -6 6 -6 7 0 10 -4 7 -9 -3 -4
4 -17 17 -27 16 -14 18 -14 9 -2 -9 11 -10 18 -2 23 5 3 10 0 10 -7 0 -7 12 1
26 17 21 25 23 26 13 6 -17 -36 -101 -141 -112 -141 -5 0 -29 -20 -53 -45 -48
-50 -43 -63 6 -14 17 17 33 29 37 26 6 -6 -47 -56 -60 -57 -4 0 -13 -13 -18
-30 -6 -16 -14 -30 -17 -30 -4 0 -20 -12 -37 -26 -20 -17 -36 -23 -52 -19 -32
8 -29 -3 5 -16 l27 -11 -27 -10 c-16 -5 -28 -17 -28 -25 0 -9 -6 -13 -14 -10
-8 3 -20 -1 -27 -10 -7 -8 -24 -19 -37 -24 -13 -5 -26 -18 -29 -29 -4 -15 -11
-19 -26 -14 -16 5 -19 3 -14 -10 4 -10 3 -15 -2 -12 -4 3 -17 -4 -29 -14 -12
-11 -27 -20 -35 -20 -8 0 -26 -11 -40 -25 -17 -17 -26 -22 -29 -13 -3 8 -13 3
-31 -14 -18 -18 -33 -25 -44 -21 -11 4 -14 3 -9 -5 7 -11 -18 -17 -51 -13 -7
1 -13 -2 -13 -7 0 -16 -32 -23 -46 -11 -12 10 -13 9 -8 -5 7 -18 0 -20 -118
-17 -52 2 -78 -1 -78 -9 0 -6 -4 -8 -10 -5 -5 3 -19 -3 -30 -13 -23 -21 -122
-36 -168 -26 -15 3 -98 28 -185 56 -171 54 -292 82 -314 74 -8 -3 -12 -2 -8 3
3 5 19 12 35 16 17 4 30 13 30 21 0 8 7 14 16 14 8 0 12 5 9 10 -4 6 -1 17 5
25 6 8 9 23 6 33 -5 13 -1 22 11 26 13 5 14 9 5 15 -8 4 16 20 63 40 137 60
207 165 189 283 -4 29 -6 60 -5 67 2 13 1 13 -15 0 -16 -13 -17 -12 -10 6 4
11 4 16 0 12 -4 -4 -14 -1 -23 6 -8 6 -5 -2 7 -20 30 -42 28 -48 -7 -24 -16
12 -37 21 -46 21 -19 0 -67 -35 -59 -43 15 -14 -75 -17 -115 -2 -48 17 -93 22
-246 30 -55 3 -110 8 -122 11 -22 6 -41 34 -23 34 6 0 10 5 10 10 0 6 7 18 15
28 51 58 65 76 65 83 0 5 6 9 14 9 8 0 25 21 38 48 13 26 27 50 33 54 43 30
53 41 49 53 -3 7 0 16 6 20 9 6 9 9 -1 15 -10 7 -9 14 5 34 9 14 14 26 10 26
-4 0 -1 7 7 16 10 13 10 17 -1 24 -23 14 38 24 66 11 32 -14 37 -14 29 2 -4 6
0 4 8 -5 8 -10 16 -15 19 -12 3 2 32 -7 63 -21 32 -14 60 -24 62 -22 5 5 -48
57 -58 57 -5 0 -9 7 -9 15 0 8 -6 12 -14 9 -8 -3 -17 -1 -21 5 -4 7 2 10 17 7
13 -3 27 -5 31 -5 5 -1 5 -5 2 -11 -6 -10 -5 -11 34 -15 13 -1 27 -9 32 -16 6
-9 9 -10 9 -2 0 7 10 10 28 6 59 -11 72 -10 72 4 0 10 -6 13 -16 9 -9 -4 -13
-2 -8 5 4 6 0 15 -7 20 -11 7 -11 9 3 9 9 0 23 -7 32 -15 20 -20 43 -19 55 3
6 9 11 11 11 5 0 -7 6 -13 14 -13 8 0 17 -6 19 -12 4 -10 8 -9 16 2 9 12 11
11 9 -9 -3 -23 -1 -24 70 -25 59 -1 76 2 90 17 14 16 14 20 2 27 -8 5 -11 12
-7 16 4 4 13 2 19 -4 17 -17 28 -15 28 6 0 14 -2 15 -10 2 -8 -13 -10 -12 -10
3 0 10 -8 18 -20 18 -11 1 -24 3 -30 4 -5 1 -15 3 -22 4 -6 0 -8 4 -5 8 4 3
35 7 70 9 66 2 204 22 380 55 124 23 237 61 284 96 17 12 34 23 37 23 3 0 21
15 39 34 17 19 47 43 64 53 l33 20 -41 29 c-22 16 -46 34 -53 40 -53 49 -179
84 -300 84 -67 0 -99 4 -108 13 -7 8 -22 12 -33 10 -15 -3 -13 0 7 11 70 41
254 46 383 10z m-452 -51 c-7 -2 -19 -2 -25 0 -7 3 -2 5 12 5 14 0 19 -2 13
-5z m322 -24 c59 -11 169 -48 163 -55 -2 -1 -26 3 -53 11 -28 8 -97 21 -154
29 -57 9 -106 18 -109 21 -9 9 92 5 153 -6z m345 -19 c0 -5 -2 -10 -4 -10 -3
0 -8 5 -11 10 -3 6 -1 10 4 10 6 0 11 -4 11 -10z m143 -45 c-3 -9 -8 -14 -10
-11 -3 3 -2 9 2 15 9 16 15 13 8 -4z m-760 -31 c3 -3 1 -19 -5 -35 -12 -36
-41 -36 -46 0 -5 30 31 55 51 35z m367 -99 c0 -23 -59 -67 -130 -96 -39 -16
-76 -29 -81 -29 -5 0 5 21 21 47 16 25 33 63 36 82 4 20 8 39 10 42 6 11 144
-33 144 -46z m-510 -80 c18 -26 46 -55 63 -66 l32 -19 -55 -1 c-30 -1 -84 -1
-120 0 -76 0 -103 -6 -93 -22 4 -7 -1 -6 -11 2 -12 10 -14 17 -6 25 5 5 10 17
10 26 0 13 -2 13 -11 0 -9 -12 -10 -12 -5 3 3 10 6 27 6 38 0 10 7 19 15 19 9
0 18 7 21 15 4 8 10 15 16 15 5 0 17 7 25 16 9 9 26 14 40 11 18 -3 23 0 24
17 1 18 2 17 9 -6 4 -14 22 -47 40 -73z m-1415 -55 c10 -16 -16 -43 -28 -31
-11 11 -2 41 12 41 5 0 13 -5 16 -10z m-638 -32 c-3 -8 -6 -5 -6 6 -1 11 2 17
5 13 3 -3 4 -12 1 -19z m39 -113 c41 -135 70 -249 123 -480 27 -115 52 -219
56 -230 6 -14 5 -17 -3 -10 -13 12 -83 269 -147 540 -24 105 -49 206 -55 225
-11 37 -13 56 -6 49 3 -2 17 -45 32 -94z m1774 60 c0 -1 -9 -5 -20 -8 -12 -3
-20 0 -20 8 0 8 8 11 20 8 11 -3 20 -7 20 -8z m-1345 -57 c15 -22 39 -52 53
-65 l25 -23 -95 0 c-82 0 -97 3 -113 20 -14 15 -15 20 -4 20 10 1 8 5 -5 15
-10 8 -23 12 -29 8 -6 -4 -7 -1 -3 6 5 7 14 10 22 7 7 -3 16 -1 20 5 3 6 12 3
21 -8 8 -10 12 -13 9 -6 -9 18 5 45 20 39 8 -3 14 -1 14 5 0 6 7 6 20 -1 16
-9 18 -8 14 5 -11 27 3 16 31 -27z m1085 38 c0 -8 -60 -12 -72 -4 -8 4 4 8 30
8 23 0 42 -2 42 -4z m320 -22 c0 -2 -7 -4 -15 -4 -8 0 -15 4 -15 10 0 5 7 7
15 4 8 -4 15 -8 15 -10z m-2180 -30 c0 -9 12 -43 26 -75 l27 -59 -25 -37 c-14
-21 -47 -62 -73 -91 -47 -52 -47 -53 -29 -75 19 -22 19 -22 -2 -5 -22 19 -33
18 -261 -42 -47 -12 -83 -16 -100 -11 -26 7 -23 10 57 51 46 23 105 58 130 76
56 43 150 150 197 227 36 57 53 71 53 41z m2114 7 c6 -10 -24 -25 -32 -16 -3
3 1 5 9 5 11 0 11 2 -1 10 -13 8 -13 10 2 10 9 0 19 -4 22 -9z m71 -13 c-9 -6
-19 -7 -22 -4 -4 3 -1 6 6 6 7 0 9 4 6 10 -4 6 1 7 11 3 15 -6 15 -7 -1 -15z
m1135 -12 c0 -2 -8 -10 -17 -17 -16 -13 -17 -12 -4 4 13 16 21 21 21 13z m-17
-120 c-10 -13 -20 -22 -22 -20 -4 4 29 44 36 44 2 0 -4 -11 -14 -24z m98 -97
c-5 -13 -10 -19 -10 -12 -1 15 10 45 15 40 3 -2 0 -15 -5 -28z m-231 17 c0 -2
-17 -16 -37 -31 l-38 -28 29 31 c26 28 46 40 46 28z m653 -58 c14 -24 54 -71
90 -105 35 -35 74 -83 86 -109 27 -54 39 -124 22 -124 -7 0 -9 5 -5 11 13 21
-43 106 -123 185 -58 58 -84 93 -92 120 -21 75 -14 82 22 22z m-444 -25 c-11
-30 -48 -93 -54 -93 -2 0 10 27 27 60 32 64 44 78 27 33z m71 -47 c0 -3 -4 -8
-10 -11 -5 -3 -10 -1 -10 4 0 6 5 11 10 11 6 0 10 -2 10 -4z m-170 -21 c0 -8
-2 -15 -4 -15 -2 0 -6 7 -10 15 -3 8 -1 15 4 15 6 0 10 -7 10 -15z m-3 -47 c2
-17 0 -19 -7 -8 -5 8 -6 18 -4 22 8 12 10 10 11 -14z m593 -78 c-20 -13 -33
-13 -25 0 3 6 14 10 23 10 15 0 15 -2 2 -10z m-45 -20 c-3 -5 -16 -15 -28 -21
-21 -10 -21 -9 2 10 25 23 36 27 26 11z m-522 -25 c-3 -9 -8 -14 -10 -11 -3 3
-2 9 2 15 9 16 15 13 8 -4z m617 -10 c16 -20 5 -47 -30 -74 -34 -25 -44 -22
-65 19 -14 27 -14 30 11 49 31 24 67 27 84 6z m-167 -20 c-3 -9 -8 -14 -10
-11 -3 3 -2 9 2 15 9 16 15 13 8 -4z m-4002 -78 c-10 -9 -11 -8 -5 6 3 10 9
15 12 12 3 -3 0 -11 -7 -18z m2532 -494 c-7 -2 -19 -2 -25 0 -7 3 -2 5 12 5
14 0 19 -2 13 -5z m-590 -100 c-7 -2 -19 -2 -25 0 -7 3 -2 5 12 5 14 0 19 -2
13 -5z m480 -61 c8 -7 17 -8 22 -4 4 4 0 -7 -8 -24 -23 -45 -117 -113 -179
-130 -90 -23 -361 -3 -343 26 3 4 -1 8 -8 7 -35 -1 -47 5 -47 23 0 14 7 20 21
20 11 0 18 4 15 9 -9 15 80 41 194 57 25 3 81 12 125 19 92 15 188 14 208 -3z
m2317 -331 c0 -9 -20 -37 -20 -29 0 3 -2 13 -5 21 -4 8 0 14 10 14 8 0 15 -3
15 -6z m70 -61 c0 -5 -5 -10 -11 -10 -5 0 -7 5 -4 10 3 6 8 10 11 10 2 0 4 -4
4 -10z m64 -8 c-6 -4 -14 -14 -17 -22 -4 -10 -6 -8 -6 8 -1 15 5 22 17 22 10
0 13 -3 6 -8z m-124 -16 c0 -3 -4 -8 -10 -11 -5 -3 -10 -1 -10 4 0 6 5 11 10
11 6 0 10 -2 10 -4z m140 -16 c0 -5 -2 -10 -4 -10 -3 0 -8 5 -11 10 -3 6 -1
10 4 10 6 0 11 -4 11 -10z m-650 -30 c0 -5 -12 -10 -27 -10 -22 0 -25 2 -13
10 20 13 40 13 40 0z"/>
<path d="M1851 4974 c0 -11 3 -14 6 -6 3 7 2 16 -1 19 -3 4 -6 -2 -5 -13z"/>
<path d="M2786 3128 c3 -5 10 -6 15 -3 13 9 11 12 -6 12 -8 0 -12 -4 -9 -9z"/>
<path d="M3490 2530 c-9 -6 -10 -10 -3 -10 6 0 15 5 18 10 8 12 4 12 -15 0z"/>
<path d="M3440 2510 c-8 -5 -10 -10 -5 -10 6 0 17 5 25 10 8 5 11 10 5 10 -5
0 -17 -5 -25 -10z"/>
<path d="M2950 2380 c0 -5 5 -10 11 -10 5 0 7 5 4 10 -3 6 -8 10 -11 10 -2 0
-4 -4 -4 -10z"/>
<path d="M2665 2330 c3 -5 8 -10 11 -10 2 0 4 5 4 10 0 6 -5 10 -11 10 -5 0
-7 -4 -4 -10z"/>
<path d="M3917 2132 c-10 -10 -14 -22 -10 -25 12 -13 21 -7 25 18 6 30 6 30
-15 7z"/>
<path d="M3925 2080 c3 -5 10 -10 16 -10 5 0 9 5 9 10 0 6 -7 10 -16 10 -8 0
-12 -4 -9 -10z"/>
<path d="M3919 1849 c-15 -15 -24 -30 -21 -33 5 -6 52 44 52 57 0 10 -1 9 -31
-24z"/>
<path d="M3780 1664 c0 -8 5 -12 10 -9 6 3 10 10 10 16 0 5 -4 9 -10 9 -5 0
-10 -7 -10 -16z"/>
<path d="M3145 1270 c4 -6 11 -8 16 -5 14 9 11 15 -7 15 -8 0 -12 -5 -9 -10z"/>
<path d="M2920 5611 c0 -11 5 -23 10 -26 6 -4 10 5 10 19 0 14 -4 26 -10 26
-5 0 -10 -9 -10 -19z"/>
<path d="M2980 5615 c0 -16 69 -89 77 -81 3 3 -4 17 -16 32 -25 32 -26 40 -4
48 9 4 31 -4 53 -19 51 -35 98 -34 135 5 l29 30 -137 0 c-114 0 -137 -2 -137
-15z"/>
<path d="M3270 5609 c0 -31 -18 -58 -53 -79 -37 -23 -21 -26 27 -6 33 14 86
72 86 94 0 7 -13 12 -30 12 -24 0 -30 -4 -30 -21z"/>
<path d="M3342 5593 l-11 -38 19 24 c21 24 26 51 12 51 -5 0 -14 -17 -20 -37z"/>
<path d="M2511 5604 c0 -11 3 -14 6 -6 3 7 2 16 -1 19 -3 4 -6 -2 -5 -13z"/>
<path d="M5215 780 c3 -5 8 -10 11 -10 2 0 4 5 4 10 0 6 -5 10 -11 10 -5 0 -7
-4 -4 -10z"/>
<path d="M4510 689 c0 -5 5 -7 10 -4 6 3 10 8 10 11 0 2 -4 4 -10 4 -5 0 -10
-5 -10 -11z"/>
<path d="M4534 671 c3 -5 16 -11 28 -14 22 -6 22 -5 4 8 -22 17 -40 20 -32 6z"/>
<path d="M4716 655 c-8 -9 -22 -12 -33 -9 -16 6 -15 5 2 -9 11 -8 20 -15 20
-14 0 1 9 12 19 25 21 25 16 30 -8 7z"/>
<path d="M4607 633 c-6 -34 -2 -40 16 -21 12 11 12 17 2 31 -11 16 -13 15 -18
-10z"/>
<path d="M5378 653 c6 -2 18 -2 25 0 6 3 1 5 -13 5 -14 0 -19 -2 -12 -5z"/>
<path d="M5405 620 c3 -5 10 -10 16 -10 5 0 9 5 9 10 0 6 -7 10 -16 10 -8 0
-12 -4 -9 -10z"/>
<path d="M5486 615 c-9 -26 -7 -32 5 -12 6 10 9 21 6 23 -2 3 -7 -2 -11 -11z"/>
<path d="M5430 591 c0 -17 15 -19 28 -5 11 12 9 14 -8 14 -11 0 -20 -4 -20 -9z"/>
</g>
</svg>
